<?xml version="1.0" encoding="utf-8"?>
<svg version="1.0" xmlns="http://www.w3.org/2000/svg" width="128.000000pt" height="128.000000pt" viewBox="0 0 128.000000 128.000000" preserveAspectRatio="xMidYMid meet">
  <g transform="translate(0.000000,128.000000) scale(0.100000,-0.100000)" fill="#000000" stroke="none">
    <path d="M 114 1248 C 100.5 1239 84.5 1225.25 69.625 1210.375 C 54.75 1195.5 41 1179.5 32 1166 L 16 1142 L 0 1118 L 0 879 L 0 640 L 0 401 L 0 162 L 16.5 138 L 33 114 C 41.5 100.5 55 84.5 69.75 69.625 C 84.5 54.75 100.5 41 114 32 L 138 16 L 162 0 L 401 0 L 640 0 L 879 0 L 1118 0 L 1142 16.5 L 1166 33 C 1179.5 41.5 1195.5 55 1210.375 69.75 C 1225.25 84.5 1239 100.5 1248 114 L 1264 138 L 1280 162 L 1280 401 L 1280 640 L 1280 879 L 1280 1118 L 1264 1142 L 1248 1166 C 1239 1179.5 1225.25 1195.5 1210.375 1210.375 C 1195.5 1225.25 1179.5 1239 1166 1248 L 1142 1264 L 1118 1280 L 879 1280 L 640 1280 L 401 1280 L 162 1280 L 138 1264 L 114 1248 Z M 805 1102 C 851.5 1080.5 885.25 1054.5 907.375 1022.125 C 929.5 989.75 940 951 940 904 C 940 871 935 842.5 924.5 817.625 C 914 792.75 898 771.5 876 753 C 867 745.5 860.5 738.5 857.125 733.125 C 853.75 727.75 853.5 724 857 723 C 885 713.5 910.5 688.5 929.125 656 C 947.75 623.5 959.5 583.5 960 544 C 960 511.5 949.5 474 933.125 440.625 C 916.75 407.25 894.5 378 871 362 C 837.5 340 807.5 327 758 319.5 C 708.5 312 639.5 310 528 310 L 424 310 L 320 310 L 320 515.5 L 320 721 L 320 926 L 320 1131 L 429 1129.5 L 538 1128 C 639 1126.5 694.25 1125.25 730 1121.75 C 765.75 1118.25 782 1112.5 805 1102 Z M 325 135 L 324.096 213.795 L 955 215 M 955 215 L 955 195 L 955 175 L 955 155 L 955 135 L 797.5 135 L 640 135 L 482.5 135 L 325 135" style=""/>
    <path d="M 520 879 L 520 833.5 L 520 788 L 563 789.5 L 606 791 C 645.5 793 667.25 794.5 682 798.75 C 696.75 803 704.5 810 716 823 C 732 842 740 864.5 739.875 886.25 C 739.75 908 731.5 929 715 945 C 704 956.5 696 962.75 681 966.125 C 666 969.5 644 970 605 970 L 562.5 970 L 520 970 L 520 924.5 Z" style=""/>
    <path d="M520 560 l0 -90 89 0 c74 0 92 3 115 21 36 28 38 105 3 137 -20 19 -35 22 -115 22 l-92 0 0 -90z" style=""/>
  </g>
</svg>